<svg width="635" height="167" viewBox="0 0 635 167" fill="none" xmlns="http://www.w3.org/2000/svg">
<path d="M102.759 60.1056V163.777H67.6161V125.567H35.1535V163.777H0.0105209V60.1056H35.1535V96.8348H67.6161V60.1056H102.759Z" fill="white"/>
<path d="M169.577 166.146C153.594 166.146 141.135 161.851 132.2 153.262C123.266 144.672 118.798 132.626 118.798 117.125V60.1056H153.941V116.088C153.941 123.691 155.282 129.22 157.962 132.675C160.742 136.131 164.713 137.859 169.875 137.859C175.037 137.859 178.959 136.131 181.639 132.675C184.419 129.22 185.808 123.691 185.808 116.088V60.1056H220.356V117.125C220.356 132.626 215.888 144.672 206.954 153.262C198.019 161.851 185.56 166.146 169.577 166.146Z" fill="white"/>
<path d="M329.534 163.777L329.236 116.532L306.602 154.446H291.115L268.481 118.161V163.777H236.465V60.1056H265.354L299.305 115.348L332.364 60.1056H361.252L361.55 163.777H329.534Z" fill="white"/>
<path d="M471.61 163.777L471.313 116.532L448.678 154.446H433.191L410.557 118.161V163.777H378.541V60.1056H407.43L441.382 115.348L474.44 60.1056H503.328L503.626 163.777H471.61Z" fill="white"/>
<path d="M591.648 145.708H552.038L545.039 163.777H509.3L554.867 60.1056H589.414L634.981 163.777H598.647L591.648 145.708ZM581.969 120.531L571.843 94.4652L561.717 120.531H581.969Z" fill="white"/>
<path d="M191.431 22.1026C191.431 33.9509 181.78 43.5559 169.875 43.5559C157.97 43.5559 148.319 33.9509 148.319 22.1026C148.319 10.2542 157.97 0.64922 169.875 0.64922C181.78 0.64922 191.431 10.2542 191.431 22.1026Z" fill="white"/>
</svg>
