<svg width="2629" height="370" viewBox="0 0 2629 370" fill="none" xmlns="http://www.w3.org/2000/svg">
<path d="M109.894 0.844265C103.781 2.50206 97.9264 7.1128 94.3518 13.1223C92.3832 16.4897 90.1037 22.8618 88.8604 28.5087C87.7206 33.8447 87.2544 51.3552 88.0315 59.955C89.4302 74.9787 93.8337 95.7012 99.4806 113.885C100.931 118.548 102.175 122.589 102.226 122.899C102.278 123.21 98.4963 124.298 93.7819 125.386C41.4578 137.353 8.35373 155.693 1.20449 176.622C-0.401497 181.388 -0.401497 188.538 1.20449 193.304C5.08995 204.649 17.109 215.736 35.5519 225.009C48.5552 231.537 67.5163 238.168 86.2701 242.675C92.8494 244.281 100.517 246.146 103.366 246.819C106.215 247.545 111.137 248.477 114.245 248.892C117.406 249.306 123.311 250.135 127.456 250.705C137.247 252.052 151.753 253.658 160.871 254.383C164.86 254.694 168.279 255.16 168.434 255.316C168.59 255.523 170.559 258.372 172.786 261.636C178.692 270.236 185.427 279.509 191.799 287.643L197.342 294.74L191.54 300.283C174.444 316.55 160.664 325.979 146.987 330.642C142.79 332.092 141.495 332.299 136.522 332.299C130.875 332.351 130.668 332.299 126.834 330.383C122.534 328.259 119.322 325.202 117.457 321.317C116.266 318.882 116.059 318.882 111.655 319.918C105.438 321.42 97.6156 320.54 91.2952 317.587C89.482 316.758 87.8242 316.032 87.6688 316.032C87.1508 316.032 88.0315 335.045 88.8086 339.656C91.5543 355.819 98.4445 365.611 109.427 368.926C112.588 369.911 113.934 370.014 119.84 369.807C125.902 369.548 127.3 369.341 132.481 367.631C151.753 361.311 176.309 343.023 200.243 317.12L208.481 308.21L210.087 309.919C211.019 310.852 214.853 314.996 218.686 319.089C241.222 343.386 265.83 361.466 284.584 367.631C289.764 369.341 291.163 369.548 297.224 369.807C303.13 370.014 304.477 369.911 307.637 368.926C319.294 365.404 326.806 353.954 328.981 336.237C329.655 330.642 329.655 316.136 328.981 309.246C327.479 294.326 323.024 273.396 317.429 255.523C315.564 249.669 314.787 246.457 315.201 246.353C315.512 246.25 317.636 245.783 319.915 245.317C335.509 242.105 357.889 235.319 370.375 230.086C387.367 222.937 399.127 215.529 407.209 206.877C414.306 199.313 417 193.2 417 184.963C417 176.726 414.306 170.613 407.209 163.049C402.857 158.387 397.469 154.138 390.786 150.046C386.538 147.507 382.135 145.072 381.668 145.072C381.565 145.072 381.306 146.678 381.15 148.595C380.477 155.382 377.576 162.168 372.758 168.022L370.012 171.39L371.255 173.203C371.929 174.239 372.965 176.26 373.535 177.71C380.269 194.806 362.863 212.213 326.702 224.646C317.532 227.807 309.192 230.138 308.725 229.672C308.518 229.413 306.964 225.734 305.254 221.486C301.524 212.109 297.742 203.458 292.769 192.838L289.091 184.963L292.769 177.037C313.181 133.468 325.821 92.8518 328.981 60.6803C329.655 53.7901 329.655 39.2844 328.981 33.6893C326.806 15.9716 319.294 4.5225 307.637 0.999683C304.477 0.0153678 303.13 -0.0882443 297.224 0.11898C291.163 0.37801 289.764 0.585235 284.584 2.29483C264.846 8.77059 241.688 26.1256 215.474 54.1527C209.931 60.1104 204.699 65.7573 203.818 66.7934C199.518 71.7668 180.298 97.359 173.822 106.736C170.766 111.139 168.279 114.818 168.227 114.869C168.175 114.869 163.565 115.336 158.021 115.802C152.478 116.268 142.324 117.356 135.486 118.237C128.647 119.118 122.223 119.895 121.239 119.895L119.478 119.946L117.509 112.02C110.774 84.5629 110.463 62.4935 116.628 50.06C120.617 42.0301 126.316 38.0928 135.02 37.3675L138.957 37.0567L140.148 33.8447C142.48 27.3172 147.557 20.6342 153.048 16.8523C154.654 15.7644 155.949 14.7283 155.949 14.5729C155.949 13.4331 141.081 5.61042 134.553 3.22734C125.85 0.0671739 116.214 -0.865335 109.894 0.844265ZM290.386 39.5952C294.841 41.8229 297.691 44.724 300.281 49.801C306.601 62.3381 306.342 84.3556 299.556 112.02L297.587 119.946L295.826 119.895C294.841 119.895 288.417 119.118 281.579 118.237C274.741 117.356 264.587 116.268 259.043 115.802C253.5 115.336 248.786 114.766 248.63 114.61C248.475 114.403 245.936 110.725 242.983 106.477C236.818 97.5144 228.944 86.8423 223.504 79.9521L219.722 75.186L225.525 69.6427C238.994 56.7948 249.977 48.6095 260.96 43.118C269.819 38.7145 275.155 37.2639 281.993 37.523C286.034 37.6784 287.019 37.9374 290.386 39.5952ZM218.79 100.105C222.831 105.13 226.872 110.259 227.804 111.502L229.41 113.781H208.532H187.655L189.779 110.88C192.887 106.684 199 98.9132 204.077 92.8518L208.532 87.5158L209.983 89.2254C210.76 90.1579 214.749 95.0277 218.79 100.105ZM238.476 129.323C240.29 129.634 240.704 130.049 243.864 134.918C251.998 147.404 264.587 169.369 270.492 181.44L272.202 184.963L270.492 188.434C264.483 200.712 251.687 223.04 243.812 235.06L240.393 240.292L236.87 240.758C232.311 241.276 184.702 241.276 180.143 240.758L176.62 240.292L173.201 235.06C165.067 222.522 152.737 200.971 146.831 188.952L144.811 184.911L147.764 179.109C158.28 158.542 175.636 129.634 177.604 129.479C188.483 128.598 233.244 128.546 238.476 129.323ZM157.503 131.344C157.503 131.447 155.172 135.436 152.375 140.151C149.577 144.865 144.966 152.947 142.169 158.024C139.319 163.101 136.833 167.09 136.626 166.883C136.056 166.313 129.114 149.113 126.679 142.327C125.539 139.063 124.917 136.524 125.176 136.317C125.694 135.799 138.75 133.52 149.163 132.121C157.452 131.033 157.503 131.033 157.503 131.344ZM267.591 132.121C275.621 133.157 291.422 135.851 291.888 136.317C292.147 136.576 291.629 138.7 290.645 141.55C288.573 147.507 282.045 163.878 280.957 165.95L280.18 167.504L278.108 163.671C274.119 156.314 268.679 146.834 264.12 139.27C261.634 135.074 259.561 131.499 259.561 131.344C259.561 131.188 260.338 131.137 261.271 131.292C262.152 131.447 265.053 131.81 267.591 132.121ZM109.997 144.088C112.484 150.512 119.892 167.66 124.037 176.519L127.974 184.963L124.037 193.356C119.478 203.095 113.106 217.808 110.515 224.595C109.531 227.133 108.547 229.413 108.339 229.672C107.873 230.138 99.5324 227.807 90.3627 224.646C63.6308 215.477 46.9493 203.51 43.012 190.714C41.7168 186.569 41.7168 183.357 43.012 179.109C46.483 167.815 60.5742 156.781 82.3846 148.233C90.5182 145.021 106.941 139.84 108.029 140.099C108.339 140.151 109.22 141.964 109.997 144.088ZM141.962 211.643C144.655 216.461 149.214 224.491 152.167 229.464C155.12 234.386 157.452 238.531 157.4 238.634C156.882 239.152 125.954 234.386 125.176 233.661C124.658 233.143 126.523 227.548 131.082 216.047C134.709 206.981 136.729 202.37 136.988 202.629C137.092 202.733 139.319 206.773 141.962 211.643ZM285.413 214.7C290.956 228.687 292.458 233.091 291.888 233.661C291.163 234.334 260.183 239.152 259.665 238.634C259.613 238.531 262.152 234.023 265.364 228.636C268.576 223.196 273.186 215.166 275.621 210.711C279.403 203.82 280.128 202.733 280.646 203.458C281.009 203.924 283.133 209.001 285.413 214.7ZM299.556 257.906C306.342 285.674 306.601 307.588 300.281 320.125C297.691 325.254 294.893 328.103 290.231 330.383C286.345 332.299 286.19 332.351 280.543 332.299C275.777 332.248 274.119 332.04 270.441 330.797C257.23 326.497 242.621 316.55 225.525 300.283L219.722 294.74L225.266 287.643C231.638 279.509 238.373 270.236 244.279 261.636C246.506 258.372 248.475 255.523 248.63 255.316C248.786 255.16 253.5 254.59 259.043 254.124C269.612 253.243 293.805 250.342 294.22 249.928C294.375 249.772 295.204 249.721 296.033 249.824L297.587 249.98L299.556 257.906ZM227.804 258.424C226.198 260.652 212.884 277.281 209.983 280.701L208.532 282.41L204.077 277.074C199.622 271.79 190.763 260.548 188.691 257.647L187.603 256.093H208.532H229.462L227.804 258.424Z" fill="white"/>
<path d="M200.554 144.036C185.323 147.248 173.563 158.024 168.797 173.048C167.761 176.415 167.606 177.969 167.606 184.963C167.606 191.957 167.761 193.511 168.797 196.878C173.149 210.659 183.096 220.606 196.876 224.957C200.243 225.993 201.849 226.149 208.532 226.149C215.215 226.149 216.821 225.993 220.189 224.957C234.539 220.398 245.056 209.467 248.682 195.117C250.133 189.47 250.133 180.456 248.682 174.809C245.056 160.562 234.643 149.579 220.448 145.072C217.598 144.14 215.267 143.881 209.828 143.725C205.994 143.622 201.798 143.777 200.554 144.036Z" fill="white"/>
<path d="M168.175 22.6029C155.224 25.7112 147.142 39.129 150.51 51.9769C152.996 61.5092 160.249 68.244 169.937 70.0054C184.287 72.5439 197.912 60.9393 197.912 46.1228C197.912 37.0049 192.369 28.0943 184.339 24.3643C178.796 21.774 173.822 21.2041 168.175 22.6029Z" fill="white"/>
<path d="M343.228 120.568C331.209 121.915 322.609 130.67 321.418 142.689C321.055 146.523 322.143 152.17 324.008 155.796C328.256 164.189 337.685 169.473 347.165 168.748C360.013 167.763 369.39 157.558 369.39 144.554C369.39 137.509 366.8 131.603 361.671 126.785C356.905 122.33 349.548 119.843 343.228 120.568Z" fill="white"/>
<path d="M100.827 260.6C96.8902 261.325 91.1915 264.382 88.135 267.387C86.529 269.044 84.7158 271.635 83.5242 274.018C81.6074 277.851 81.6074 277.955 81.6074 284.379C81.6074 290.855 81.6074 290.958 83.5242 294.947C92.8493 314.426 121.084 312.717 127.974 292.253C129.217 288.523 129.476 281.789 128.492 278.11C127.041 272.774 122.793 266.92 118.338 264.071C113.468 261.066 106.319 259.616 100.827 260.6Z" fill="white"/>
<path d="M635.296 143.96C635.296 156.824 631.648 168.056 624.352 177.656C617.248 187.256 607.264 194.552 594.4 199.544L657.472 275H599.296L546.592 208.472H537.952V275H490.72V83.192H551.776C563.68 83.192 574.72 84.44 584.896 86.936C595.072 89.432 603.904 93.176 611.392 98.168C618.88 103.16 624.736 109.496 628.96 117.176C633.184 124.664 635.296 133.592 635.296 143.96ZM589.792 144.824C589.792 136.184 586.432 129.848 579.712 125.816C572.992 121.592 563.584 119.48 551.488 119.48H537.952V173.336H549.472C562.144 173.336 572.032 170.84 579.136 165.848C586.24 160.856 589.792 153.848 589.792 144.824ZM735.714 131C754.146 131 768.738 136.472 779.49 147.416C790.242 158.168 795.618 173.144 795.618 192.344C795.618 199.64 794.754 207.416 793.026 215.672H711.234C711.618 224.312 714.498 231.32 719.874 236.696C725.442 241.88 733.89 244.472 745.218 244.472C752.13 244.472 759.33 243.896 766.818 242.744C774.498 241.4 781.122 239.48 786.69 236.984L792.45 266.648C785.154 270.296 776.898 273.08 767.682 275C758.658 276.92 749.25 277.88 739.458 277.88C727.17 277.88 716.322 276.152 706.914 272.696C697.506 269.048 689.634 264.056 683.298 257.72C676.962 251.384 672.162 243.8 668.898 234.968C665.634 226.136 664.002 216.344 664.002 205.592C664.002 194.072 665.634 183.704 668.898 174.488C672.354 165.272 677.154 157.496 683.298 151.16C689.634 144.632 697.218 139.64 706.05 136.184C714.882 132.728 724.77 131 735.714 131ZM734.274 160.376C726.978 160.376 721.314 162.776 717.282 167.576C713.442 172.184 711.522 178.616 711.522 186.872H752.418C752.802 185.336 752.994 183.704 752.994 181.976C752.994 175.832 751.362 170.744 748.098 166.712C744.834 162.488 740.226 160.376 734.274 160.376ZM898.902 261.176C894.486 265.592 888.438 269.528 880.758 272.984C873.27 276.248 865.014 277.88 855.99 277.88C849.654 277.88 843.99 276.824 838.998 274.712C834.006 272.6 829.782 269.72 826.326 266.072C823.062 262.424 820.47 258.2 818.55 253.4C816.822 248.408 815.958 243.128 815.958 237.56C815.958 224.504 819.99 214.712 828.054 208.184C836.31 201.464 847.926 197.528 862.902 196.376C868.47 195.992 874.326 195.704 880.469 195.512C886.806 195.32 892.374 195.128 897.174 194.936V190.328C897.174 174.968 888.63 167.288 871.542 167.288C864.822 167.288 858.294 168.056 851.958 169.592C845.814 171.128 840.15 173.24 834.966 175.928L826.614 143.96C833.334 140.12 841.206 137.048 850.23 134.744C859.446 132.248 869.43 131 880.182 131C899.958 131 915.414 136.184 926.55 146.552C937.686 156.728 943.254 172.088 943.254 192.632V275H898.902V261.176ZM873.846 247.64C878.262 247.64 882.39 247.064 886.23 245.912C890.262 244.76 893.91 243.224 897.174 241.304V220.28C892.566 220.664 888.438 221.144 884.79 221.72C881.142 222.104 877.59 222.488 874.134 222.872C864.726 224.024 860.022 228.44 860.022 236.12C860.022 239.576 861.174 242.36 863.478 244.472C865.974 246.584 869.43 247.64 873.846 247.64ZM1042.37 131C1049.67 131 1056.77 131.768 1063.68 133.304C1070.79 134.84 1076.93 136.952 1082.11 139.64L1077.51 172.472C1073.86 170.936 1069.44 169.592 1064.26 168.44C1059.27 167.288 1054.18 166.712 1048.99 166.712C1036.71 166.712 1027.49 170.072 1021.35 176.792C1015.2 183.512 1012.13 192.728 1012.13 204.44C1012.13 216.152 1015.2 225.368 1021.35 232.088C1027.49 238.808 1036.71 242.168 1048.99 242.168C1054.18 242.168 1059.27 241.592 1064.26 240.44C1069.44 239.288 1073.86 237.944 1077.51 236.408L1082.11 269.24C1076.93 271.928 1070.79 274.04 1063.68 275.576C1056.77 277.112 1049.67 277.88 1042.37 277.88C1030.47 277.88 1019.71 276.152 1010.11 272.696C1000.71 269.048 992.739 264.056 986.211 257.72C979.683 251.192 974.691 243.416 971.235 234.392C967.779 225.368 966.051 215.384 966.051 204.44C966.051 193.496 967.779 183.512 971.235 174.488C974.691 165.464 979.683 157.784 986.211 151.448C992.739 144.92 1000.71 139.928 1010.11 136.472C1019.71 132.824 1030.47 131 1042.37 131ZM1092.49 133.88H1114.09V97.016H1160.17V133.88H1200.78V169.016H1160.17V224.312C1160.17 229.88 1161.32 234.296 1163.63 237.56C1166.12 240.632 1170.54 242.168 1176.88 242.168C1180.33 242.168 1183.79 241.976 1187.24 241.592C1190.89 241.016 1194.35 240.248 1197.61 239.288L1200.78 271.256C1196.17 273.368 1190.51 275 1183.79 276.152C1177.07 277.304 1170.35 277.88 1163.63 277.88C1154.6 277.88 1146.92 276.536 1140.59 273.848C1134.44 270.968 1129.36 267.224 1125.32 262.616C1121.48 257.816 1118.6 252.248 1116.68 245.912C1114.96 239.384 1114.09 232.472 1114.09 225.176V169.016H1092.49V133.88ZM1350.05 275L1270.85 160.664V275H1225.35V83.192H1270.85L1350.05 197.528V83.192H1395.55V275H1350.05ZM1493.96 131C1512.4 131 1526.99 136.472 1537.74 147.416C1548.49 158.168 1553.87 173.144 1553.87 192.344C1553.87 199.64 1553 207.416 1551.28 215.672H1469.48C1469.87 224.312 1472.75 231.32 1478.12 236.696C1483.69 241.88 1492.14 244.472 1503.47 244.472C1510.38 244.472 1517.58 243.896 1525.07 242.744C1532.75 241.4 1539.37 239.48 1544.94 236.984L1550.7 266.648C1543.4 270.296 1535.15 273.08 1525.93 275C1516.91 276.92 1507.5 277.88 1497.71 277.88C1485.42 277.88 1474.57 276.152 1465.16 272.696C1455.76 269.048 1447.88 264.056 1441.55 257.72C1435.21 251.384 1430.41 243.8 1427.15 234.968C1423.88 226.136 1422.25 216.344 1422.25 205.592C1422.25 194.072 1423.88 183.704 1427.15 174.488C1430.6 165.272 1435.4 157.496 1441.55 151.16C1447.88 144.632 1455.47 139.64 1464.3 136.184C1473.13 132.728 1483.02 131 1493.96 131ZM1492.52 160.376C1485.23 160.376 1479.56 162.776 1475.53 167.576C1471.69 172.184 1469.77 178.616 1469.77 186.872H1510.67C1511.05 185.336 1511.24 183.704 1511.24 181.976C1511.24 175.832 1509.61 170.744 1506.35 166.712C1503.08 162.488 1498.48 160.376 1492.52 160.376ZM1564.99 133.88H1586.59V97.016H1632.67V133.88H1673.28V169.016H1632.67V224.312C1632.67 229.88 1633.82 234.296 1636.13 237.56C1638.62 240.632 1643.04 242.168 1649.38 242.168C1652.83 242.168 1656.29 241.976 1659.74 241.592C1663.39 241.016 1666.85 240.248 1670.11 239.288L1673.28 271.256C1668.67 273.368 1663.01 275 1656.29 276.152C1649.57 277.304 1642.85 277.88 1636.13 277.88C1627.1 277.88 1619.42 276.536 1613.09 273.848C1606.94 270.968 1601.86 267.224 1597.82 262.616C1593.98 257.816 1591.1 252.248 1589.18 245.912C1587.46 239.384 1586.59 232.472 1586.59 225.176V169.016H1564.99V133.88ZM1830.22 275L1799.12 184.856L1768.02 275H1724.82L1684.78 133.88H1728.85L1748.72 218.84L1777.52 133.88H1820.72L1849.52 218.84L1869.39 133.88H1913.46L1873.42 275H1830.22ZM2072.07 204.44C2072.07 214.808 2070.44 224.504 2067.18 233.528C2063.91 242.36 2059.11 250.136 2052.78 256.856C2046.44 263.384 2038.57 268.568 2029.16 272.408C2019.75 276.056 2009 277.88 1996.91 277.88C1984.81 277.88 1974.06 276.056 1964.65 272.408C1955.24 268.568 1947.37 263.384 1941.03 256.856C1934.7 250.136 1929.9 242.36 1926.63 233.528C1923.37 224.504 1921.74 214.808 1921.74 204.44C1921.74 194.072 1923.37 184.472 1926.63 175.64C1929.9 166.616 1934.7 158.84 1941.03 152.312C1947.37 145.592 1955.24 140.408 1964.65 136.76C1974.06 132.92 1984.81 131 1996.91 131C2009 131 2019.75 132.92 2029.16 136.76C2038.57 140.408 2046.44 145.592 2052.78 152.312C2059.11 158.84 2063.91 166.616 2067.18 175.64C2070.44 184.472 2072.07 194.072 2072.07 204.44ZM2025.99 204.44C2025.99 199.448 2025.51 194.648 2024.55 190.04C2023.59 185.24 2021.96 181.016 2019.66 177.368C2017.55 173.528 2014.57 170.552 2010.73 168.44C2007.08 166.136 2002.47 164.984 1996.91 164.984C1991.34 164.984 1986.63 166.136 1982.79 168.44C1979.15 170.552 1976.17 173.528 1973.87 177.368C1971.75 181.016 1970.22 185.24 1969.26 190.04C1968.3 194.648 1967.82 199.448 1967.82 204.44C1967.82 209.432 1968.3 214.328 1969.26 219.128C1970.22 223.736 1971.75 227.96 1973.87 231.8C1976.17 235.448 1979.15 238.424 1982.79 240.728C1986.63 242.84 1991.34 243.896 1996.91 243.896C2002.47 243.896 2007.08 242.84 2010.73 240.728C2014.57 238.424 2017.55 235.448 2019.66 231.8C2021.96 227.96 2023.59 223.736 2024.55 219.128C2025.51 214.328 2025.99 209.432 2025.99 204.44ZM2187.05 173.624H2181.58C2163.34 173.624 2150.47 178.232 2142.99 187.448V275H2096.91V133.88H2141.55V157.496C2144.23 149.816 2148.36 143.768 2153.93 139.352C2159.5 134.936 2166.79 132.728 2175.82 132.728C2178.51 132.728 2180.71 132.92 2182.44 133.304C2184.36 133.496 2186.28 133.88 2188.2 134.456L2187.05 173.624ZM2206.03 275V71.672H2252.11V199.832L2294.45 133.88H2344.27L2298.77 203.288L2350.32 275H2297.61L2252.11 206.744V275H2206.03Z" fill="white"/>
</svg>
